PathFileType	4	(X/Y/Z)	Patient5_TMGait_0pt45_1_left_03.trc.trc
DataRate	CameraRate	NumFrames	NumMarkers	Units	OrigDataRate	OrigDataStartFrame	OrigNumFrames
58.091286307054	58.091286307054	4	32	mm	58.091286307054	53	       141
Frame#	Time	R.ASIS			L.ASIS			Chest			R.Shoulder			Neck			L.Shoulder			L.Elbow			L.Wrist			R.Elbow			R.Wrist			L.Thigh.Superior			L.Thigh.Lateral			L.Thigh.Inferior			L.Patella			L.Shank.Superior			L.Shank.Lateral			L.Shank.Inferior			L.Heel			L.Midfoot.Lateral			L.Midfoot.Superior			L.Toe			R.Thigh.Superior			R.Thigh.Lateral			R.Thigh.Inferior			R.Patella			R.Shank.Superior			R.Shank.Lateral			R.Shank.Inferior			R.Heel			R.Midfoot.Lateral			R.Midfoot.Superior			R.Toe			
		X1	Y1	Z1	X2	Y2	Z2	X3	Y3	Z3	X4	Y4	Z4	X5	Y5	Z5	X6	Y6	Z6	X7	Y7	Z7	X8	Y8	Z8	X9	Y9	Z9	X10	Y10	Z10	X11	Y11	Z11	X12	Y12	Z12	X13	Y13	Z13	X14	Y14	Z14	X15	Y15	Z15	X16	Y16	Z16	X17	Y17	Z17	X18	Y18	Z18	X19	Y19	Z19	X20	Y20	Z20	X21	Y21	Z21	X22	Y22	Z22	X23	Y23	Z23	X24	Y24	Z24	X25	Y25	Z25	X26	Y26	Z26	X27	Y27	Z27	X28	Y28	Z28	X29	Y29	Z29	X30	Y30	Z30	X31	Y31	Z31	X32	Y32	Z32	

53	4.275142857143	948.397450748436	1011.869546771200	550.708543478331	965.438731379949	965.043797140349	308.575497577874	1028.670374219377	1447.790007744150	445.720110941263	899.483425816888	1510.464178393383	591.674377952447	904.787075754558	1569.017260498013	404.792378355466	1011.285293053727	1518.684777940783	244.951443899865	995.794754111058	1194.404096913838	105.175875936370	1153.737084325890	957.000706374406	127.831910464282	793.219143025719	1186.763635609657	706.754569375028	1006.327078027682	990.635859343976	686.233719800241	990.555634927279	747.577564754270	312.679564519652	922.953731378656	672.691599424710	270.004815884188	990.396671373274	621.380464202887	344.385329319391	993.412630685837	506.370570462409	358.844234304387	944.346060486611	400.667629545416	374.541121062678	891.908487523638	330.987249927324	291.219819201972	909.840658795533	279.647372997156	383.259790792301	776.193777737304	49.752217048336	377.826143275678	865.179946159028	27.736445433810	317.313750346642	961.139840138724	88.843396680646	364.011858974943	1070.000450083207	45.338219064517	365.848708701619	985.888462288596	788.749279887203	593.010587356896	906.524111870324	713.388062915234	660.419776428474	995.900359667101	655.558272407165	601.997245016427	995.976303534330	549.929416090004	645.999850124443	904.404595845624	455.283984705235	614.068796771234	807.906796748289	438.370722917042	699.724339318288	816.514048010590	345.473329492946	621.610618556541	599.158115027990	237.967134304039	603.505117241689	634.794658298325	154.032985268743	666.283291168770	758.961138179072	137.183293096320	650.400443192762	807.864603330138	38.099032707969	636.645725832174	
54	4.292357142857	945.935625078293	1012.916148393093	547.813101602459	963.135159587398	965.024246008459	307.022886804571	1026.187626466501	1448.250727278336	443.708592010732	896.944504976942	1510.256665540337	589.751544226866	902.030598564548	1569.180010786128	403.039938436519	1008.629111325075	1519.374493586746	243.144201116032	996.077851262309	1194.598795832985	103.920574589580	1156.445669623546	958.946281333995	127.632018761824	790.764870133067	1186.332096284193	704.390543771436	1003.272730032027	989.624497701665	683.098528345245	986.991610217076	746.861446817653	311.864356130229	918.624054252340	672.429723074590	269.451718316344	985.701925657651	620.599414356690	343.700072976450	987.740467797554	505.727294222349	358.269936346149	938.192144270923	400.285533444235	374.182706562235	885.430423845672	330.808292483132	290.876598064063	903.044008391515	279.484688279560	383.067589807965	768.381678373009	49.719325063981	377.859403281001	857.371825069972	27.749045540326	317.315835023632	953.309804281212	88.819471525865	364.013337417232	1062.196247514975	45.344647146882	365.825302684910	984.880578999760	790.154725809014	590.758485385662	906.235863234448	714.895327842663	658.943460340785	994.666157468976	657.045819808635	599.476915798336	996.102115287931	552.249749785836	644.356548009771	906.910872012182	456.175550584338	614.390936233763	810.726782932301	437.354539617801	699.696111214523	822.599380016434	343.671122062539	623.302019597406	608.729907655676	226.699362918769	605.479001429644	647.774477366568	146.838238565291	671.351243311187	772.552467949515	135.235945523930	656.727193147615	826.039189669306	38.414904009674	646.860678467165	
55	4.309571428571	943.112198000285	1013.678879566041	545.203691410144	960.878950525650	964.974283876132	305.634205769111	1023.666279009019	1448.567963022124	441.849773116842	894.409919726444	1510.019660076777	587.927359777055	899.269129887805	1569.258107110689	401.349641461622	1006.005787962667	1519.860779638712	241.457228079609	996.129475144258	1194.620417698019	102.816723540379	1158.658925726097	960.584524907960	127.687733859031	788.486577035121	1185.906217606115	702.331422113079	1000.238309092524	988.486019712412	679.996263204106	983.448143834224	746.146821922130	311.183033734577	914.371663004075	672.193980049174	268.972528927831	981.060577843247	619.824343394893	343.103070772163	982.142776787544	505.058454469195	357.753876804273	932.115242075671	399.907196934346	373.887650307565	878.993307618456	330.618950345556	290.551488164072	896.288902121610	279.307011237497	382.892827902350	760.565030376135	49.632513918636	377.937709760662	849.569298201475	27.759255296893	317.317049586119	945.476080220515	88.773072879998	364.033313917646	1054.397469728834	45.335571469258	365.807239926764	983.306297693384	791.476733290310	589.008110186254	905.455811096321	716.276998609196	657.685304221132	993.196013714902	658.536391114089	597.445619010682	996.110699300128	554.668345502127	643.179287252989	909.935492182258	456.969342359345	614.910648973292	813.893957424590	435.783315658523	699.532121890601	829.730870653152	341.506636627149	624.929665416363	620.295413903161	214.169097537689	606.872537001099	662.777771142527	138.656464518626	675.869155148433	788.087534673159	132.942912612315	662.757416641472	846.575824835406	38.813490098287	656.852160605420	
56	4.326785714286	940.072527236453	1014.229459295953	543.027315027543	958.632887341582	964.866471847222	304.415649571927	1021.080950980921	1448.748534916410	440.161532995516	891.823677012970	1509.767759006354	586.205366157032	896.490904059172	1569.255897727436	399.721993748310	1003.435039887489	1520.157537475909	239.910353125968	995.965523438707	1194.478975294320	101.886591821069	1160.358941918819	961.889627910699	127.976355003123	786.301674758597	1185.494949703933	700.549245811256	997.253534725368	987.347893947732	676.964455854786	979.918277633550	745.436631392061	310.641104562570	910.186741862141	671.987099426370	268.557685350283	976.459947306658	619.055868093910	342.584232826152	976.602083028437	504.359563660164	357.280543448764	926.113147502612	399.546259143283	373.664283425386	872.570316586786	330.415993223534	290.243555194855	889.569062058635	279.111974052820	382.729979963138	752.739534505215	49.488310565326	378.064352050417	841.768545921409	27.767650818189	317.316135424606	937.637954976052	88.703603065607	364.065497234589	1046.599653656032	45.315694001043	365.790567643609	981.298591953351	792.810354061882	587.893578480060	904.390507178243	717.562508692387	656.720401886141	991.766357939733	660.115305112897	596.012620307737	996.260060080297	557.210188791661	642.551428095321	913.583906468392	457.779247715099	615.560204837304	817.577637977212	433.865528296137	699.239315385206	837.861052657944	339.289321659847	626.359479144638	633.788508736994	201.328376261284	607.527271696496	679.425458840830	130.147998784415	679.454613555259	805.070331779688	130.599683107571	668.066172990691	868.587267898141	39.437352143063	665.925680338321	
